<svg width="81" height="24" viewBox="0 0 81 24" fill="none" xmlns="http://www.w3.org/2000/svg">
<path d="M56.8201 4.70399H52.5961C52.5001 4.70399 52.404 4.80001 52.404 4.89601V7.34399C52.404 7.43999 52.5001 7.53601 52.5961 7.53601H56.8201C56.9161 7.53601 57.0121 7.43999 57.0121 7.34399V4.89601C57.0601 4.80001 56.9641 4.70399 56.8201 4.70399ZM56.7721 8.352H48.6121C48.5161 8.352 48.3721 8.44799 48.3241 8.54399L47.2681 12.528L47.2201 12.72L45.9721 8.448C45.9241 8.352 45.8281 8.25601 45.6841 8.25601H42.5161C42.4201 8.25601 42.2761 8.352 42.2281 8.448L41.0281 12.432L40.9801 12.624L40.9321 12.528L40.4521 10.56L39.9241 8.592C39.8761 8.496 39.7801 8.4 39.6361 8.4H33.2521V4.94399C33.2521 4.84799 33.1081 4.704 32.9641 4.752L28.9321 6C28.7881 6.048 28.7401 6.096 28.7401 6.192V8.352H27.6841C27.5881 8.352 27.4921 8.44799 27.4921 8.54399V11.616C27.4921 11.712 27.5881 11.808 27.6841 11.808H28.7401V15.552C28.7401 18.192 30.1801 19.44 32.8201 19.44C33.9241 19.44 34.9801 19.2 35.7001 18.816V15.648C35.7001 15.504 35.5561 15.456 35.4601 15.456C35.0281 15.648 34.6921 15.696 34.3081 15.696C33.5881 15.696 33.2041 15.408 33.2041 14.592V11.856H35.5081C35.6041 11.856 35.7001 11.76 35.7001 11.664V9.072L38.7241 19.104C38.7721 19.2 38.8681 19.296 39.0121 19.296H42.3721C42.4681 19.296 42.6121 19.2 42.6601 19.104L44.1001 14.64L44.8201 16.944L45.4921 19.056C45.5401 19.152 45.6361 19.248 45.7801 19.248H49.1401C49.2361 19.248 49.3801 19.152 49.4281 19.056L52.5001 8.97601V19.056C52.5001 19.152 52.5961 19.248 52.6921 19.248H56.7721C56.8681 19.248 56.9641 19.152 56.9641 19.056V8.592C56.9641 8.448 56.8681 8.352 56.7721 8.352ZM62.1481 4.70399H58.0681C57.972 4.70399 57.8761 4.80001 57.8761 4.89601V19.056C57.8761 19.152 57.972 19.248 58.0681 19.248H62.1481C62.2441 19.248 62.3401 19.152 62.3401 19.056V4.89601C62.3401 4.80001 62.2441 4.70399 62.1481 4.70399ZM67.5721 4.70399H63.3481C63.2521 4.70399 63.1561 4.80001 63.1561 4.89601V7.34399C63.1561 7.43999 63.2521 7.53601 63.3481 7.53601H67.5721C67.6681 7.53601 67.7641 7.43999 67.7641 7.34399V4.89601C67.812 4.80001 67.7161 4.70399 67.5721 4.70399ZM67.5241 8.352H63.444C63.348 8.352 63.2521 8.44799 63.2521 8.54399V19.056C63.2521 19.152 63.348 19.248 63.444 19.248H67.5241C67.62 19.248 67.7161 19.152 67.7161 19.056V8.592C67.7161 8.448 67.62 8.352 67.5241 8.352ZM74.2921 8.112C70.6921 8.112 68.1481 10.752 68.1481 13.824V13.872C68.1481 16.944 70.6921 19.536 74.244 19.536C77.844 19.536 80.3881 16.896 80.3881 13.824V13.776C80.3881 10.704 77.8441 8.112 74.2921 8.112ZM76.0201 13.824C76.0201 14.88 75.3001 15.696 74.2921 15.696C73.284 15.696 72.5161 14.832 72.5161 13.776V13.728C72.5161 12.672 73.2361 11.856 74.244 11.856C75.2521 11.856 76.0201 12.72 76.0201 13.824ZM12.6121 0C5.98806 0 0.612061 5.376 0.612061 12C0.612061 18.624 5.98806 24 12.6121 24C19.2361 24 24.6121 18.624 24.6121 12C24.6121 5.376 19.2361 0 12.6121 0ZM12.6121 20.832C7.71606 20.832 3.78006 16.896 3.78006 12C3.78006 7.104 7.71606 3.168 12.6121 3.168C17.5081 3.168 21.4441 7.104 21.4441 12C21.4441 16.896 17.5081 20.832 12.6121 20.832Z" fill="white"/>
<path d="M15.5881 11.52C16.9666 11.52 18.0841 10.4025 18.0841 9.02399C18.0841 7.64549 16.9666 6.528 15.5881 6.528C14.2096 6.528 13.0921 7.64549 13.0921 9.02399C13.0921 10.4025 14.2096 11.52 15.5881 11.52Z" fill="white"/>
<path d="M15.5881 17.472C16.9666 17.472 18.0841 16.3545 18.0841 14.976C18.0841 13.5975 16.9666 12.48 15.5881 12.48C14.2096 12.48 13.0921 13.5975 13.0921 14.976C13.0921 16.3545 14.2096 17.472 15.5881 17.472Z" fill="white"/>
<path d="M9.63607 17.472C11.0146 17.472 12.1321 16.3545 12.1321 14.976C12.1321 13.5975 11.0146 12.48 9.63607 12.48C8.25756 12.48 7.14007 13.5975 7.14007 14.976C7.14007 16.3545 8.25756 17.472 9.63607 17.472Z" fill="white"/>
<path d="M9.63607 11.52C11.0146 11.52 12.1321 10.4025 12.1321 9.02399C12.1321 7.64549 11.0146 6.528 9.63607 6.528C8.25756 6.528 7.14007 7.64549 7.14007 9.02399C7.14007 10.4025 8.25756 11.52 9.63607 11.52Z" fill="white"/>
</svg>
