<svg width="28" height="28" viewBox="0 0 28 28" fill="none" xmlns="http://www.w3.org/2000/svg">
<path d="M8.27692 6.39121C8.52681 5.86903 8.66675 5.28419 8.66675 4.66666C8.66675 2.45752 6.87589 0.666656 4.66675 0.666656C2.45761 0.666656 0.666748 2.45752 0.666748 4.66666C0.666748 6.8758 2.45761 8.66666 4.66675 8.66666C5.28428 8.66666 5.86912 8.52672 6.3913 8.27683L8.43794 10.3235C7.73992 11.3774 7.33342 12.6412 7.33342 14C7.33342 15.3588 7.73992 16.6226 8.43794 17.6765L6.69081 19.4236C6.4705 19.3647 6.23896 19.3333 6.00008 19.3333C4.52732 19.3333 3.33342 20.5272 3.33342 22C3.33341 23.4727 4.52732 24.6667 6.00008 24.6667C7.47284 24.6667 8.66675 23.4728 8.66675 22C8.66675 21.7611 8.63534 21.5296 8.57642 21.3093L10.3236 19.5621C11.3775 20.2602 12.6413 20.6667 14.0001 20.6667C15.3589 20.6667 16.6227 20.2602 17.6766 19.5621L19.7232 21.6088C19.4734 22.1309 19.3334 22.7158 19.3334 23.3333C19.3334 25.5425 21.1243 27.3333 23.3334 27.3333C25.5426 27.3333 27.3334 25.5425 27.3334 23.3333C27.3334 21.1242 25.5426 19.3333 23.3334 19.3333C22.7159 19.3333 22.131 19.4733 21.6089 19.7232L19.5622 17.6765C20.2602 16.6226 20.6667 15.3588 20.6667 14C20.6667 12.6412 20.2602 11.3774 19.5622 10.3235L21.3094 8.57633C21.5297 8.63525 21.7612 8.66666 22.0001 8.66666C23.4728 8.66666 24.6667 7.47275 24.6667 5.99999C24.6667 4.52723 23.4728 3.33332 22.0001 3.33332C20.5273 3.33332 19.3334 4.52723 19.3334 5.99999C19.3334 6.23887 19.3648 6.47041 19.4237 6.69071L17.6766 8.43785C16.6227 7.73983 15.3589 7.33332 14.0001 7.33332C12.6413 7.33332 11.3775 7.73983 10.3236 8.43785L8.27692 6.39121Z" fill="white"/>
</svg>
