<svg width="30" height="30" viewBox="0 0 30 30" fill="none" xmlns="http://www.w3.org/2000/svg">
<path fill-rule="evenodd" clip-rule="evenodd" d="M14.9999 0.333374C6.89974 0.333374 0.333252 6.89986 0.333252 15C0.333252 23.1002 6.89974 29.6667 14.9999 29.6667C23.1001 29.6667 29.6666 23.1002 29.6666 15C29.6666 6.89986 23.1001 0.333374 14.9999 0.333374ZM21.8408 8.15918C20.2953 6.61366 17.7895 6.61366 16.244 8.15918C15.7233 8.67988 15.7233 9.5241 16.2439 10.0448C16.7647 10.5655 17.6089 10.5655 18.1296 10.0448C18.6337 9.54068 19.451 9.54068 19.9552 10.0448C20.4593 10.5489 20.4593 11.3663 19.9552 11.8704L16.244 15.5816C15.9509 15.8747 15.5532 15.9982 15.1673 15.9494C14.4367 15.8569 13.7696 16.3742 13.6771 17.1048C13.5847 17.8353 14.102 18.5025 14.8326 18.5949C16.0011 18.7428 17.229 18.3678 18.1296 17.4672L21.8408 13.756C23.3863 12.2105 23.3863 9.7047 21.8408 8.15918ZM15.1673 11.4051C13.9988 11.2573 12.7709 11.6323 11.8703 12.5329L8.15906 16.2441C6.61354 17.7896 6.61354 20.2954 8.15906 21.8409C9.70458 23.3864 12.2104 23.3864 13.7559 21.8409C14.2766 21.3202 14.2766 20.476 13.7559 19.9553C13.2352 19.4346 12.391 19.4346 11.8703 19.9553C11.3661 20.4594 10.5488 20.4594 10.0447 19.9553C9.54055 19.4512 9.54055 18.6338 10.0447 18.1297L13.7559 14.4185C14.049 14.1254 14.4466 14.0019 14.8326 14.0507C15.5631 14.1431 16.2303 13.6258 16.3227 12.8953C16.4151 12.1647 15.8978 11.4976 15.1673 11.4051Z" fill="white"/>
</svg>
