<svg width="28" height="30" viewBox="0 0 28 30" fill="none" xmlns="http://www.w3.org/2000/svg">
<path d="M15.3334 10.832C17.6337 10.2399 19.3334 8.15176 19.3334 5.66665C19.3334 2.72113 16.9456 0.333313 14.0001 0.333313C11.0546 0.333313 8.66675 2.72113 8.66675 5.66665C8.66675 8.15176 10.3664 10.2399 12.6667 10.832V13.6666H8.66675C6.45761 13.6666 4.66675 15.4575 4.66675 17.6666V19.168C2.36645 19.7601 0.666748 21.8482 0.666748 24.3333C0.666748 27.2788 3.05456 29.6666 6.00008 29.6666C8.9456 29.6666 11.3334 27.2788 11.3334 24.3333C11.3334 21.8482 9.63372 19.7601 7.33342 19.168V17.6666C7.33342 16.9303 7.93037 16.3333 8.66675 16.3333H19.3334C20.0698 16.3333 20.6667 16.9303 20.6667 17.6666V19.168C18.3664 19.7601 16.6667 21.8482 16.6667 24.3333C16.6667 27.2788 19.0546 29.6666 22.0001 29.6666C24.9456 29.6666 27.3334 27.2788 27.3334 24.3333C27.3334 21.8482 25.6337 19.7601 23.3334 19.168V17.6666C23.3334 15.4575 21.5426 13.6666 19.3334 13.6666H15.3334V10.832Z" fill="white"/>
</svg>
