<svg width="28" height="30" viewBox="0 0 28 30" fill="none" xmlns="http://www.w3.org/2000/svg">
<path d="M22.0001 11C24.9456 11 27.3334 8.61216 27.3334 5.66665C27.3334 2.72113 24.9456 0.333313 22.0001 0.333313C19.0546 0.333313 16.6667 2.72113 16.6667 5.66665C16.6667 6.16961 16.7364 6.6563 16.8665 7.11763L9.78879 11.2463C8.8223 10.2708 7.48175 9.66665 6.00008 9.66665C3.05456 9.66665 0.666748 12.0545 0.666748 15C0.666748 17.9455 3.05456 20.3333 6.00008 20.3333C7.48175 20.3333 8.8223 19.7291 9.78879 18.7537L16.8665 22.8823C16.7364 23.3437 16.6667 23.8304 16.6667 24.3333C16.6667 27.2788 19.0546 29.6666 22.0001 29.6666C24.9456 29.6666 27.3334 27.2788 27.3334 24.3333C27.3334 21.3878 24.9456 19 22.0001 19C20.5184 19 19.1779 19.6042 18.2114 20.5796L11.1337 16.451C11.2638 15.9896 11.3334 15.5029 11.3334 15C11.3334 14.497 11.2638 14.0103 11.1337 13.549L18.2114 9.42033C19.1779 10.3958 20.5184 11 22.0001 11Z" fill="white"/>
</svg>
