<svg width="22" height="21" viewBox="0 0 22 21" fill="none" xmlns="http://www.w3.org/2000/svg">
<path d="M17.0572 9.27614L8.85411 17.4792C7.59886 15.2472 5.75278 13.4011 3.52077 12.1459L13.8248 1.84182C14.3528 1.3138 14.6169 1.0498 14.9213 0.950878C15.1891 0.863867 15.4775 0.863867 15.7453 0.950878C16.0498 1.0498 16.3138 1.31381 16.8418 1.84183L19.1582 4.15818C19.6862 4.6862 19.9502 4.95021 20.0491 5.25465C20.1361 5.52244 20.1361 5.8109 20.0491 6.07869C19.9502 6.38313 19.6862 6.64714 19.1582 7.17516L18.9428 7.39052L21.1381 9.58579C21.9191 10.3668 21.9191 11.6332 21.1381 12.4142L17.6095 15.9428C17.0888 16.4635 16.2446 16.4635 15.7239 15.9428C15.2032 15.4221 15.2032 14.5779 15.7239 14.0572L18.781 11L17.0572 9.27614Z" fill="white"/>
<path d="M1.68147 14.6222L0.682557 17.619C0.248292 18.9217 0.0311601 19.5731 0.18563 20.0063C0.320054 20.3833 0.616699 20.6799 0.993664 20.8144C1.42684 20.9688 2.07825 20.7517 3.38102 20.3174L6.37778 19.3185C6.52876 19.2682 6.64805 19.2284 6.74771 19.1931C5.6637 17.0669 3.93307 15.3363 1.80685 14.2523C1.77156 14.3519 1.73179 14.4712 1.68147 14.6222Z" fill="white"/>
</svg>
